<svg width="24" height="24" viewBox="0 0 24 24" fill="none" xmlns="http://www.w3.org/2000/svg">
<path d="M11.7551 19.3355H22.3673M11.7551 19.3355C11.7551 19.6342 11.6963 19.9299 11.582 20.2058C11.4677 20.4818 11.3002 20.7325 11.089 20.9437C10.8778 21.1549 10.6271 21.3224 10.3511 21.4367C10.0752 21.551 9.77948 21.6098 9.48082 21.6098C9.18215 21.6098 8.88641 21.551 8.61049 21.4367C8.33456 21.3224 8.08384 21.1549 7.87265 20.9437C7.66147 20.7325 7.49394 20.4818 7.37965 20.2058C7.26536 19.9299 7.20653 19.6342 7.20653 19.3355C7.20653 19.0368 7.26536 18.7411 7.37965 18.4652C7.49394 18.1892 7.66147 17.9385 7.87265 17.7273C8.08384 17.5162 8.33456 17.3486 8.61049 17.2343C8.88641 17.12 9.18215 17.0612 9.48082 17.0612C9.77948 17.0612 10.0752 17.12 10.3511 17.2343C10.6271 17.3486 10.8778 17.5162 11.089 17.7273C11.3002 17.9385 11.4677 18.1892 11.582 18.4652C11.6963 18.7411 11.7551 19.0368 11.7551 19.3355ZM22.3673 19.3355L19.3355 16.3037M22.3673 19.3355L19.3355 22.3673M5.69143 3.41714C5.69143 4.02032 5.93104 4.59879 6.35755 5.0253C6.78406 5.45181 7.36254 5.69142 7.96571 5.69142C8.56889 5.69142 9.14737 5.45181 9.57388 5.0253C10.0004 4.59879 10.24 4.02032 10.24 3.41714C10.24 2.81396 10.0004 2.23549 9.57388 1.80898C9.14737 1.38246 8.56889 1.14285 7.96571 1.14285C7.36254 1.14285 6.78406 1.38246 6.35755 1.80898C5.93104 2.23549 5.69143 2.81396 5.69143 3.41714ZM11.7551 10.9975C11.7551 11.6007 11.9947 12.1792 12.4212 12.6057C12.8477 13.0322 13.4262 13.2718 14.0294 13.2718C14.6326 13.2718 15.211 13.0322 15.6376 12.6057C16.0641 12.1792 16.3037 11.6007 16.3037 10.9975C16.3037 10.3944 16.0641 9.8159 15.6376 9.38938C15.211 8.96287 14.6326 8.72326 14.0294 8.72326C13.4262 8.72326 12.8477 8.96287 12.4212 9.38938C11.9947 9.8159 11.7551 10.3944 11.7551 10.9975Z" stroke="#BFC0D1" stroke-linecap="round" stroke-linejoin="round"/>
<path d="M11.7551 10.9976H5.31265C4.22126 11.0192 3.18185 11.4679 2.41764 12.2474C1.65343 13.0268 1.22536 14.0749 1.22536 15.1665C1.22536 16.2581 1.65343 17.3062 2.41764 18.0857C3.18185 18.8652 4.22126 19.3139 5.31265 19.3355H7.20653M16.3037 10.9976H18.578C19.5832 10.9976 20.5472 10.5982 21.258 9.88743C21.9688 9.17663 22.3682 8.21257 22.3682 7.20735C22.3682 6.20212 21.9688 5.23807 21.258 4.52727C20.5472 3.81647 19.5832 3.41714 18.578 3.41714H10.2367M5.69143 3.41714H1.14286" stroke="#BFC0D1" stroke-linecap="round" stroke-linejoin="round"/>
</svg>
