<svg width="24" height="24" viewBox="0 0 24 24" fill="none" xmlns="http://www.w3.org/2000/svg">
<g clip-path="url(#clip0_4_206)">
<path d="M6.818 22V19.143C6.52 16.166 3 14.572 3 9.99999C3 5.42999 5.727 1.94399 11.182 1.99999C15.109 2.04199 18.818 4.28599 18.818 8.85799L21 12.286C21 14.572 18.818 14.572 18.818 14.572C18.818 14.572 19.364 20.286 14.454 20.286V22" stroke="#BFC0D1" stroke-width="1.5" stroke-linecap="round" stroke-linejoin="round"/>
<path d="M11 12C11.5304 12 12.0391 11.7893 12.4142 11.4142C12.7893 11.0391 13 10.5304 13 10C13 9.46957 12.7893 8.96086 12.4142 8.58579C12.0391 8.21071 11.5304 8 11 8C10.4696 8 9.96086 8.21071 9.58579 8.58579C9.21071 8.96086 9 9.46957 9 10C9 10.5304 9.21071 11.0391 9.58579 11.4142C9.96086 11.7893 10.4696 12 11 12Z" stroke="#BFC0D1" stroke-width="1.5" stroke-linecap="round" stroke-linejoin="round"/>
<path d="M11 13C11.7956 13 12.5587 12.6839 13.1213 12.1213C13.6839 11.5587 14 10.7956 14 10C14 9.20435 13.6839 8.44129 13.1213 7.87868C12.5587 7.31607 11.7956 7 11 7C10.2044 7 9.44129 7.31607 8.87868 7.87868C8.31607 8.44129 8 9.20435 8 10C8 10.7956 8.31607 11.5587 8.87868 12.1213C9.44129 12.6839 10.2044 13 11 13Z" stroke="#BFC0D1" stroke-width="1.5" stroke-linecap="round" stroke-linejoin="round" stroke-dasharray="0.3 2"/>
</g>
<defs>
<clipPath id="clip0_4_206">
<rect width="24" height="24" fill="white"/>
</clipPath>
</defs>
</svg>
