<svg width="70" height="70" viewBox="0 0 70 70" fill="none" xmlns="http://www.w3.org/2000/svg">
<g clip-path="url(#clip0_4_190)">
<path d="M33.5417 11.6667C20.4808 11.6667 13.9475 11.6667 9.89042 15.085C5.83333 18.5033 5.83333 24.0012 5.83333 35C5.83333 45.9987 5.83333 51.4996 9.89042 54.915C13.9475 58.3304 20.4779 58.3333 33.5417 58.3333C46.6025 58.3333 53.1358 58.3333 57.1929 54.915C61.25 51.4967 61.25 45.9987 61.25 35C61.25 31.5875 61.25 28.7058 61.1304 26.25M53.9583 0L54.7108 2.03292C55.6967 4.69875 56.1896 6.03167 57.1608 7.00292C58.135 7.97708 59.4679 8.47 62.1337 9.45583L64.1667 10.2083L62.1337 10.9608C59.4679 11.9467 58.135 12.4396 57.1638 13.4108C56.1896 14.385 55.6967 15.7179 54.7108 18.3838L53.9583 20.4167L53.2058 18.3838C52.22 15.7179 51.7271 14.385 50.7558 13.4137C49.7817 12.4396 48.4487 11.9467 45.7829 10.9608L43.75 10.2083L45.7829 9.45583C48.4487 8.47 49.7817 7.97708 50.7529 7.00583C51.7271 6.03167 52.22 4.69875 53.2058 2.03292L53.9583 0Z" stroke="#BFC0D1" stroke-width="2" stroke-linecap="round" stroke-linejoin="round"/>
<path d="M45.2083 29.1667L48.7871 32.2496C50.2892 33.5475 51.0417 34.195 51.0417 35C51.0417 35.805 50.2892 36.4525 48.7871 37.7504L45.2083 40.8333M21.875 29.1667L18.2963 32.2496C16.7942 33.5475 16.0417 34.195 16.0417 35C16.0417 35.805 16.7942 36.4525 18.2963 37.7504L21.875 40.8333M36.4583 26.25L30.625 43.75" stroke="#BFC0D1" stroke-width="2" stroke-linecap="round" stroke-linejoin="round"/>
</g>
<defs>
<clipPath id="clip0_4_190">
<rect width="70" height="70" fill="white"/>
</clipPath>
</defs>
</svg>
