<svg width="14" height="14" viewBox="0 0 14 14" fill="none" xmlns="http://www.w3.org/2000/svg">
<path d="M6.99999 12.8333C6.19305 12.8333 5.43471 12.6801 4.72499 12.3737C4.01527 12.0672 3.39791 11.6517 2.87291 11.1271C2.34791 10.6025 1.93238 9.9851 1.62632 9.27499C1.32027 8.56488 1.16705 7.80655 1.16666 6.99999C1.16627 6.19343 1.31949 5.4351 1.62632 4.72499C1.93316 4.01488 2.34869 3.39752 2.87291 2.87291C3.39713 2.3483 4.01449 1.93277 4.72499 1.62632C5.43549 1.31988 6.19382 1.16666 6.99999 1.16666C7.80616 1.16666 8.56449 1.31988 9.27499 1.62632C9.98549 1.93277 10.6029 2.3483 11.1271 2.87291C11.6513 3.39752 12.067 4.01488 12.3742 4.72499C12.6815 5.4351 12.8345 6.19343 12.8333 6.99999C12.8322 7.80655 12.6789 8.56488 12.3737 9.27499C12.0684 9.9851 11.6529 10.6025 11.1271 11.1271C10.6013 11.6517 9.98393 12.0674 9.27499 12.3742C8.56605 12.6811 7.80771 12.8341 6.99999 12.8333ZM6.99999 11.6667C8.30277 11.6667 9.40624 11.2146 10.3104 10.3104C11.2146 9.40624 11.6667 8.30277 11.6667 6.99999C11.6667 5.69721 11.2146 4.59374 10.3104 3.68957C9.40624 2.78541 8.30277 2.33332 6.99999 2.33332C5.69721 2.33332 4.59374 2.78541 3.68957 3.68957C2.78541 4.59374 2.33332 5.69721 2.33332 6.99999C2.33332 8.30277 2.78541 9.40624 3.68957 10.3104C4.59374 11.2146 5.69721 11.6667 6.99999 11.6667Z" fill="white"/>
</svg>
