<svg width="50" height="50" viewBox="0 0 50 50" fill="none" xmlns="http://www.w3.org/2000/svg">
<g clip-path="url(#clip0_9_292)">
<path d="M33.4063 28.125L26.9583 34.575C26.3721 35.1609 26.0426 35.9558 26.0424 36.7846C26.0422 37.6135 26.3713 38.4085 26.9573 38.9948C27.5433 39.581 28.3381 39.9104 29.167 39.9106C29.9958 39.9108 30.7908 39.5818 31.3771 38.9958L43.1625 27.2104C43.4529 26.9202 43.6833 26.5756 43.8404 26.1963C43.9976 25.817 44.0785 25.4105 44.0785 25C44.0785 24.5894 43.9976 24.1829 43.8404 23.8036C43.6833 23.4243 43.4529 23.0798 43.1625 22.7895L31.3792 11.0041C31.0889 10.7138 30.7443 10.4836 30.365 10.3265C29.9858 10.1694 29.5793 10.0885 29.1688 10.0885C28.7582 10.0885 28.3517 10.1694 27.9725 10.3265C27.5932 10.4836 27.2486 10.7138 26.9583 11.0041C26.6681 11.2944 26.4378 11.639 26.2807 12.0183C26.1236 12.3975 26.0428 12.804 26.0428 13.2145C26.0428 13.6251 26.1236 14.0315 26.2807 14.4108C26.4378 14.7901 26.6681 15.1347 26.9583 15.425L33.4063 21.875H9.375C8.5462 21.875 7.75134 22.2042 7.16529 22.7903C6.57924 23.3763 6.25 24.1712 6.25 25C6.25 25.8288 6.57924 26.6236 7.16529 27.2097C7.75134 27.7957 8.5462 28.125 9.375 28.125H33.4063Z" fill="#31323E"/>
</g>
<defs>
<clipPath id="clip0_9_292">
<rect width="50" height="50" fill="white" transform="matrix(0 -1 1 0 0 50)"/>
</clipPath>
</defs>
</svg>
